<svg width="37" height="39" viewBox="0 0 37 39" fill="none" xmlns="http://www.w3.org/2000/svg">
<rect x="1.04993" y="1.4375" width="35.45" height="36.125" rx="17.725" stroke="white" stroke-opacity="0.5"/>
<path d="M18.7745 10.7251C21.249 10.7251 21.5598 10.7355 22.5314 10.7798C23.5011 10.824 24.1638 10.9784 24.7433 11.2036C25.3424 11.4364 25.851 11.7479 26.3575 12.2544C26.8641 12.761 27.1764 13.2694 27.4093 13.8687C27.6345 14.4482 27.7879 15.1108 27.8322 16.0806C27.8765 17.0525 27.8868 17.3628 27.8868 19.8374C27.8868 22.3118 27.8765 22.6226 27.8322 23.5942C27.7879 24.5638 27.6344 25.2267 27.4093 25.8062C27.1764 26.4054 26.8641 26.9138 26.3575 27.4204C25.8509 27.927 25.3425 28.2393 24.7433 28.4722C24.1638 28.6973 23.501 28.8508 22.5314 28.895C21.5598 28.9394 21.249 28.9497 18.7745 28.9497C16.2999 28.9497 15.9896 28.9394 15.0177 28.895C14.0479 28.8508 13.3854 28.6974 12.8058 28.4722C12.2066 28.2393 11.6982 27.927 11.1915 27.4204C10.6851 26.9138 10.3736 26.4053 10.1407 25.8062C9.91555 25.2266 9.76115 24.5639 9.71692 23.5942C9.67259 22.6226 9.66223 22.3118 9.66223 19.8374C9.66223 17.3628 9.67257 17.0524 9.71692 16.0806C9.76116 15.1107 9.91548 14.4483 10.1407 13.8687C10.3736 13.2694 10.6849 12.761 11.1915 12.2544C11.6982 11.7478 12.2066 11.4365 12.8058 11.2036C13.3854 10.9783 14.0478 10.824 15.0177 10.7798C15.9896 10.7354 16.2999 10.7251 18.7745 10.7251ZM18.7736 12.3667C16.3405 12.3667 16.0518 12.3766 15.0909 12.4204C14.2025 12.4609 13.7197 12.6091 13.3986 12.7339C12.9733 12.8992 12.6695 13.0967 12.3507 13.4155C12.0319 13.7343 11.8344 14.0381 11.6691 14.4634C11.5443 14.7845 11.3961 15.2674 11.3556 16.1558C11.3118 17.1163 11.3029 17.4048 11.3029 19.8374C11.3029 22.2705 11.3118 22.5591 11.3556 23.52C11.3961 24.4084 11.5443 24.8913 11.6691 25.2124C11.8343 25.6374 12.0321 25.9406 12.3507 26.2593C12.6695 26.5781 12.9734 26.7756 13.3986 26.9409C13.7197 27.0657 14.2025 27.2149 15.0909 27.2554C16.0516 27.2992 16.3403 27.3081 18.7736 27.3081C21.2063 27.3081 21.4946 27.2992 22.4552 27.2554C23.3437 27.2149 23.8265 27.0657 24.1476 26.9409C24.5728 26.7756 24.8767 26.5781 25.1954 26.2593C25.514 25.9406 25.7119 25.6374 25.8771 25.2124C26.0019 24.8913 26.15 24.4084 26.1906 23.52C26.2344 22.5591 26.2433 22.2705 26.2433 19.8374C26.2433 17.4048 26.2344 17.1163 26.1906 16.1558C26.15 15.2674 26.0019 14.7845 25.8771 14.4634C25.7118 14.0381 25.5143 13.7343 25.1954 13.4155C24.8766 13.0967 24.5728 12.8992 24.1476 12.7339C23.8265 12.6091 23.3437 12.4609 22.4552 12.4204C21.4945 12.3766 21.2062 12.3667 18.7736 12.3667ZM18.7765 15.1577C21.3608 15.1577 23.4562 17.253 23.4562 19.8374C23.4562 22.4218 21.3608 24.5171 18.7765 24.5171C16.1922 24.5169 14.0978 22.4216 14.0978 19.8374C14.0978 17.2531 16.1922 15.1579 18.7765 15.1577ZM18.7745 16.8003C17.0972 16.8005 15.7375 18.16 15.7374 19.8374C15.7374 21.5148 17.0971 22.8743 18.7745 22.8745C20.4521 22.8745 21.8126 21.515 21.8126 19.8374C21.8126 18.1599 20.4521 16.8003 18.7745 16.8003ZM23.6417 13.8804C24.2456 13.8805 24.7355 14.3702 24.7355 14.9741C24.7354 15.5779 24.2455 16.0678 23.6417 16.0679C23.0379 16.0679 22.548 15.578 22.548 14.9741C22.548 14.3702 23.0378 13.8804 23.6417 13.8804Z" fill="white"/>
</svg>
