<svg width="21" height="20" viewBox="0 0 21 20" fill="none" xmlns="http://www.w3.org/2000/svg">
<path fill-rule="evenodd" clip-rule="evenodd" d="M9.20261 13.7445C9.23009 13.7582 9.27007 13.7582 9.27007 13.7582V13.7857C9.31129 13.7857 9.39123 13.7307 9.39123 13.7307L10.8477 12.2755L10.8889 12.2356C10.9262 12.2051 10.9579 12.1683 10.9826 12.1269C11.0101 12.0732 11.0226 12.0182 10.9951 11.9645C10.9701 11.9108 10.9289 11.8571 10.8752 11.8571C10.3232 11.7377 9.81742 11.4614 9.41871 11.0614C8.94341 10.5946 8.65133 9.97276 8.59555 9.3089C8.55475 8.88975 8.60742 8.46677 8.74976 8.07042C8.8921 7.67407 9.12057 7.31422 9.41871 7.01679L13.2335 3.19953C14.3115 2.1203 16.1989 2.1203 17.2781 3.19953C17.8177 3.75288 18.115 4.46737 18.115 5.23557C18.115 6.00377 17.8177 6.732 17.2781 7.27161L15.5393 8.99787C15.5196 9.01945 15.5055 9.04556 15.4983 9.07389C15.4911 9.10222 15.4911 9.13189 15.4981 9.16026C15.6605 9.73859 15.7542 10.3457 15.7542 10.9527C15.7542 11.2488 15.7417 11.5048 15.7005 11.7209C15.7005 11.7884 15.7279 11.8696 15.7954 11.8958C15.8271 11.915 15.8644 11.9229 15.9012 11.9181C15.9379 11.9133 15.972 11.8962 15.9977 11.8696L18.9506 8.93042C20.9867 6.88064 20.9867 3.56302 18.9506 1.52697C17.9696 0.5491 16.6409 0 15.2558 0C13.8706 0 12.542 0.5491 11.5609 1.52697L7.74616 5.34424C7.4089 5.6815 7.14034 6.04624 6.93798 6.40973L6.92175 6.42222C6.90926 6.43221 6.89676 6.44095 6.89676 6.4497C6.48298 7.18438 6.2522 8.0079 6.22394 8.85062C6.19567 9.69334 6.37076 10.5305 6.73438 11.2912C6.9917 11.8159 7.31522 12.288 7.74616 12.7202C8.16461 13.1512 8.663 13.5021 9.20261 13.7445ZM2.03025 18.4636C3.05327 19.4754 4.38981 19.9875 5.72385 19.9875L5.68388 20C7.01793 20 8.36696 19.4879 9.37874 18.4773L13.1935 14.6613C13.8913 13.9716 14.3779 13.0972 14.5963 12.1406L14.6774 11.5473C14.7037 11.4124 14.7037 11.2775 14.7037 11.1426V10.6042C14.7037 10.4681 14.6912 10.3332 14.6637 10.2257C14.6512 10.0771 14.6237 9.95594 14.5963 9.83478C14.5651 9.68418 14.5246 9.53567 14.4751 9.39009C14.2333 8.59469 13.7977 7.87185 13.2072 7.2866C12.7869 6.8703 12.2991 6.5282 11.7645 6.27482C11.7108 6.23485 11.5759 6.3023 11.5759 6.3023L10.1195 7.75751C10.0795 7.79873 10.0258 7.85245 9.98455 7.93239C9.95832 7.97361 9.95832 8.02732 9.98455 8.08228C10.012 8.13599 10.052 8.17596 10.1057 8.17596C10.6591 8.28339 11.1575 8.55319 11.5622 8.9579C12.1018 9.51126 12.3991 10.2395 12.3853 11.0339C12.3716 11.5211 12.2504 11.992 12.0206 12.3954C11.9564 12.5117 11.8798 12.6206 11.792 12.7202C11.7383 12.8014 11.6708 12.8951 11.5622 13.0025L7.74616 16.8185C7.20456 17.3449 6.47909 17.6393 5.72385 17.6393C4.96862 17.6393 4.24315 17.3449 3.70155 16.8185C3.16483 16.2769 2.86401 15.545 2.86465 14.7825C2.86465 14.0143 3.16194 13.2861 3.70155 12.7464L5.44156 11.0077C5.48153 10.954 5.49527 10.8865 5.48153 10.8328C5.21127 10.0164 5.13263 9.14879 5.25169 8.29713C5.2576 8.26172 5.25161 8.22536 5.23466 8.19372C5.21771 8.16208 5.19076 8.13695 5.15801 8.12225C5.1043 8.08103 4.96939 8.14848 4.96939 8.14848L2.029 11.0739C1.53973 11.5564 1.15179 12.1318 0.887957 12.7663C0.624121 13.4008 0.489704 14.0816 0.4926 14.7687C0.4926 16.1565 1.04595 17.4793 2.029 18.4624L2.03025 18.4636Z" fill="#FA3F6B"/>
</svg>
