<svg width="37" height="39" viewBox="0 0 37 39" fill="none" xmlns="http://www.w3.org/2000/svg">
<rect x="0.599976" y="1.4375" width="35.45" height="36.125" rx="17.725" stroke="white" stroke-opacity="0.5"/>
<path d="M14.4275 16.782V27.2625H11.0921V16.782H14.4275ZM14.6398 13.5459C14.6465 14.0606 14.4764 14.4906 14.1293 14.8361C13.7823 15.1816 13.3258 15.3543 12.7598 15.3543H12.7396C12.187 15.3543 11.7423 15.1816 11.4054 14.8361C11.0685 14.4906 10.9 14.0606 10.9 13.5459C10.9 13.0242 11.0735 12.5923 11.4206 12.2504C11.7676 11.9084 12.2207 11.7375 12.78 11.7375C13.3393 11.7375 13.7874 11.9084 14.1243 12.2504C14.4612 12.5923 14.633 13.0242 14.6398 13.5459ZM26.425 21.2555V27.2625H23.0997V21.6574C23.0997 20.9171 22.9632 20.3372 22.6903 19.9177C22.4174 19.4982 21.9912 19.2884 21.4117 19.2884C20.9872 19.2884 20.6318 19.4101 20.3454 19.6533C20.059 19.8965 19.8451 20.1979 19.7036 20.5575C19.6295 20.769 19.5924 21.0546 19.5924 21.4141V27.2625H16.2671C16.2805 24.4493 16.2873 22.1685 16.2873 20.42C16.2873 18.6715 16.2839 17.6281 16.2772 17.2896L16.2671 16.782H19.5924V18.3049H19.5722C19.707 18.0793 19.8451 17.8819 19.9866 17.7127C20.1281 17.5435 20.3185 17.3602 20.5577 17.1627C20.7969 16.9653 21.09 16.812 21.437 16.7027C21.784 16.5934 22.1698 16.5388 22.5943 16.5388C23.7466 16.5388 24.6731 16.9389 25.3739 17.7391C26.0746 18.5393 26.425 19.7115 26.425 21.2555Z" fill="white"/>
</svg>
