<svg width="18" height="20" viewBox="0 0 18 20" fill="none" xmlns="http://www.w3.org/2000/svg">
<path d="M17.7691 2.60188V19.1326C17.7683 19.2951 17.7218 19.4542 17.635 19.5917C17.5482 19.7291 17.4245 19.8394 17.278 19.9099C17.1315 19.9804 16.9681 20.0084 16.8065 19.9905C16.6449 19.9727 16.4916 19.9098 16.364 19.809L9.13081 14.0242L1.90199 19.809C1.74824 19.9324 1.55704 19.9997 1.35989 19.9999C1.22899 20.0017 1.09959 19.972 0.982626 19.9132C0.835828 19.8423 0.711986 19.7314 0.6253 19.5934C0.538615 19.4553 0.492597 19.2956 0.492523 19.1326V2.60188C0.492523 1.16484 1.65736 0 3.09462 0H15.1672C16.6042 0 17.7691 1.16484 17.7691 2.60188Z" fill="#FA3F6B"/>
</svg>
