<svg width="18" height="20" viewBox="0 0 18 20" fill="none" xmlns="http://www.w3.org/2000/svg">
<path d="M8.70937 9.63403C10.0329 9.63403 11.179 9.1593 12.1154 8.22271C13.0518 7.28631 13.5265 6.14054 13.5265 4.81688C13.5265 3.49361 13.0518 2.34772 12.1152 1.41097C11.1786 0.474684 10.0327 0 8.70937 0C7.38567 0 6.23986 0.474684 5.30346 1.41112C4.36706 2.34756 3.89218 3.49349 3.89218 4.81688C3.89218 6.14054 4.36702 7.28647 5.30361 8.2229C6.24021 9.15919 7.38614 9.63403 8.70937 9.63403ZM17.1381 15.3789C17.1111 14.9892 17.0565 14.5641 16.976 14.1152C16.8949 13.6629 16.7904 13.2354 16.6652 12.8446C16.536 12.4407 16.3602 12.0419 16.1429 11.6596C15.9174 11.2629 15.6525 10.9174 15.3553 10.6332C15.0444 10.3358 14.6639 10.0967 14.2238 9.92223C13.7853 9.74879 13.2993 9.6609 12.7795 9.6609C12.5753 9.6609 12.3779 9.74465 11.9965 9.99293C11.7255 10.1694 11.4536 10.3447 11.181 10.5187C10.919 10.6857 10.564 10.8421 10.1256 10.9837C9.69795 11.1221 9.2637 11.1923 8.83507 11.1923C8.40648 11.1923 7.97234 11.1221 7.54418 10.9837C7.10629 10.8422 6.75138 10.6858 6.48966 10.5189C6.18615 10.3249 5.91154 10.1479 5.67334 9.99273C5.29248 9.74449 5.09487 9.66071 4.89073 9.66071C4.37069 9.66071 3.88487 9.74875 3.44648 9.92242C3.00672 10.0965 2.62602 10.3356 2.31489 10.6333C2.01782 10.9177 1.75278 11.263 1.52755 11.6596C1.31044 12.0418 1.13466 12.4405 1.00525 12.8447C0.88025 13.2355 0.775758 13.6629 0.694587 14.1152C0.614158 14.5635 0.559549 14.9887 0.532518 15.3794C0.505628 15.7725 0.4923 16.1664 0.492557 16.5604C0.492557 17.6044 0.82443 18.4495 1.47888 19.0729C2.12524 19.688 2.98047 20 4.0205 20H13.6506C14.6906 20 15.5455 19.6881 16.192 19.0729C16.8466 18.45 17.1785 17.6047 17.1785 16.5602C17.1784 16.1573 17.1648 15.7598 17.1381 15.3789Z" fill="#FA3F6B"/>
</svg>
